HIERARCHY
ROOT SpineBase
{
  OFFSET 0.000000 0.000000 0.000000
  CHANNELS 6 Xposition Yposition Zposition Zrotation Xrotation Yrotation
  JOINT SpineMid
  {
    OFFSET 0.000000 31.059691 -0.000000
    CHANNELS 3 Zrotation Xrotation Yrotation
    JOINT SpineShoulder
    {
      OFFSET 0.126433 23.248175 -0.789490
      CHANNELS 3 Zrotation Xrotation Yrotation
      JOINT Neck
      {
        OFFSET 0.075444 7.747669 -0.600429
        CHANNELS 3 Zrotation Xrotation Yrotation
        JOINT Head
        {
          OFFSET -7.671303 12.465692 1.135289
          CHANNELS 3 Zrotation Xrotation Yrotation
          End Site
          {
            OFFSET 0 0 0
          }
        }
      }
      JOINT ShoulderLeft
      {
        OFFSET -14.838621 -5.140398 8.880185
        CHANNELS 3 Zrotation Xrotation Yrotation
        JOINT ElbowLeft
        {
          OFFSET -2.711474 -27.631425 0.767311
          CHANNELS 3 Zrotation Xrotation Yrotation
          JOINT WristLeft
          {
            OFFSET -0.841057 -23.919992 -6.055877
            CHANNELS 3 Zrotation Xrotation Yrotation
            JOINT HandLeft
            {
              OFFSET -1.270397 -5.531782 0.453766
              CHANNELS 3 Zrotation Xrotation Yrotation
              JOINT HandTipLeft
              {
                OFFSET 0.991594 -5.045940 -1.559212
                CHANNELS 3 Zrotation Xrotation Yrotation
                End Site
                {
                  OFFSET 0 0 0
                }
              }
              JOINT ThumbLeft
              {
                OFFSET -1.946604 -2.179027 -2.673610
                CHANNELS 3 Zrotation Xrotation Yrotation
                End Site
                {
                  OFFSET 0 0 0
                }
              }
            }
          }
        }
      }
      JOINT ShoulderRight
      {
        OFFSET 13.618436 -0.140346 -7.603211
        CHANNELS 3 Zrotation Xrotation Yrotation
        JOINT ElbowRight
        {
          OFFSET 9.514130 -20.591150 -4.674771
          CHANNELS 3 Zrotation Xrotation Yrotation
          JOINT WristRight
          {
            OFFSET 0.956787 -22.445973 -9.376957
            CHANNELS 3 Zrotation Xrotation Yrotation
            JOINT HandRight
            {
              OFFSET -1.905967 -5.321461 -3.107807
              CHANNELS 3 Zrotation Xrotation Yrotation
              JOINT HandTipRight
              {
                OFFSET -1.922335 -6.984539 -1.382005
                CHANNELS 3 Zrotation Xrotation Yrotation
                End Site
                {
                  OFFSET 0 0 0
                }
              }
              JOINT ThumbRight
              {
                OFFSET -4.887381 -2.216923 6.424039
                CHANNELS 3 Zrotation Xrotation Yrotation
                End Site
                {
                  OFFSET 0 0 0
                }
              }
            }
          }
        }
      }
    }
  }
  JOINT HipLeft
  {
    OFFSET -6.517597 0.591011 0.267501
    CHANNELS 3 Zrotation Xrotation Yrotation
    JOINT KneeLeft
    {
      OFFSET -2.664483 -35.233083 -5.379599
      CHANNELS 3 Zrotation Xrotation Yrotation
      JOINT AnkleLeft
      {
        OFFSET 1.451008 -36.310564 -0.027255
        CHANNELS 3 Zrotation Xrotation Yrotation
        JOINT FootLeft
        {
          OFFSET -4.050877 -6.995528 -4.572316
          CHANNELS 3 Zrotation Xrotation Yrotation
          End Site
          {
            OFFSET 0 0 0
          }
        }
      }
    }
  }
  JOINT HipRight
  {
    OFFSET 7.132410 2.440798 -6.793714
    CHANNELS 3 Zrotation Xrotation Yrotation
    JOINT KneeRight
    {
      OFFSET 6.905465 -32.702846 -12.701624
      CHANNELS 3 Zrotation Xrotation Yrotation
      JOINT AnkleRight
      {
        OFFSET 5.411317 -35.825804 -3.248754
        CHANNELS 3 Zrotation Xrotation Yrotation
        JOINT FootRight
        {
          OFFSET -0.196514 -6.604289 -8.070219
          CHANNELS 3 Zrotation Xrotation Yrotation
          End Site
          {
            OFFSET 0 0 0
          }
        }
      }
    }
  }
}
MOTION
Frames: 14
Frame Time: 0.033333
-48.316749 66.802474 294.081546 12.944906 -33.476944 -45.688312 -1.965169 0.733326 50.170716 -0.236311 1.009015 0.546823 19.086613 15.367192 -19.670224 0.000000 0.000000 0.000000 -33.482018 25.255490 12.329063 7.639411 -10.545255 2.696281 -1.828719 37.779482 -5.428810 -0.392297 -16.598987 11.174492 0.000000 0.000000 0.000000 0.000000 0.000000 0.000000 -82.067387 48.519896 82.675821 7.831736 -37.247243 -23.694237 14.638992 -8.399756 -6.072889 19.759588 15.707890 -10.715451 0.000000 0.000000 0.000000 0.000000 0.000000 0.000000 -24.271777 -5.549510 55.589320 -141.136891 61.687783 139.607474 95.437643 -11.832795 14.433753 0.000000 0.000000 0.000000 -106.305815 43.647011 103.400605 -64.014857 -44.421343 -53.902328 41.061368 -71.364022 -49.792896 0.000000 0.000000 0.000000
-50.650928 68.140105 293.155119 13.153886 -32.906337 -44.842683 -0.798092 0.371612 49.306310 -0.632730 1.137182 0.648142 18.883192 15.778349 -19.831642 0.000000 0.000000 0.000000 -32.188456 27.509828 11.981345 8.820592 -12.134637 2.240270 -7.837197 40.352066 -3.341249 2.015147 -20.105648 11.617131 0.000000 0.000000 0.000000 0.000000 0.000000 0.000000 -84.296781 48.098973 84.978407 12.913370 -40.361332 -22.614625 11.668209 -10.240190 -4.405549 20.031998 13.536326 -10.204337 0.000000 0.000000 0.000000 0.000000 0.000000 0.000000 -17.482992 -3.511153 53.388597 -140.080269 56.259385 129.282421 96.011074 -9.680913 12.887801 0.000000 0.000000 0.000000 -109.729993 34.070354 103.757250 -44.227686 -44.902519 -45.329032 73.358626 -83.409023 -30.862170 0.000000 0.000000 0.000000
-52.185563 69.687261 292.274265 14.567860 -33.214175 -42.580621 -0.741722 -0.015113 47.654141 -0.379287 1.102925 0.633922 17.826495 16.515114 -19.962101 0.000000 0.000000 0.000000 -30.949596 30.848676 11.468736 10.492814 -15.884388 1.785677 -15.643356 39.708303 0.168070 3.909221 -20.367360 11.186565 0.000000 0.000000 0.000000 0.000000 0.000000 0.000000 -81.349338 50.263134 80.899617 15.951410 -36.761558 -19.430573 10.135254 -15.380014 -2.630520 17.024760 13.281501 -9.385890 0.000000 0.000000 0.000000 0.000000 0.000000 0.000000 -17.309840 -2.165158 51.150651 -136.853030 56.798802 122.962416 100.978570 -6.308272 10.412327 0.000000 0.000000 0.000000 -111.077890 29.649696 102.473763 -29.516591 -45.530255 -36.952454 92.527546 -78.200731 -21.037036 0.000000 0.000000 0.000000
-53.178713 70.851656 290.891000 16.089271 -32.935345 -40.663882 -0.566569 -0.217283 46.241353 -0.500703 0.847367 0.739834 16.711989 16.907067 -19.917561 0.000000 0.000000 0.000000 -31.510585 32.933847 11.573601 13.642904 -21.115193 1.783789 -23.768173 37.071085 4.661124 5.412900 -15.694818 10.816166 0.000000 0.000000 0.000000 0.000000 0.000000 0.000000 -70.422942 53.860285 68.298526 15.086939 -27.221736 -16.021157 10.924977 -24.033974 -0.302141 11.556563 16.864299 -9.150982 0.000000 0.000000 0.000000 0.000000 0.000000 0.000000 -21.301252 -1.424635 49.803303 -135.703356 62.179354 125.065372 105.458216 -7.880159 13.963721 0.000000 0.000000 0.000000 -110.662176 29.299256 100.713948 -21.414974 -44.898274 -30.911827 84.369208 -64.212808 -35.468509 0.000000 0.000000 0.000000
-53.222965 71.566975 289.419770 17.622577 -32.352905 -39.597759 -0.271784 -0.309515 45.586150 -0.627752 0.437112 0.880614 15.341933 17.188051 -19.762479 0.000000 0.000000 0.000000 -33.426922 34.082781 12.205744 18.291722 -26.903238 2.300456 -29.067650 34.241864 8.633495 6.748490 -12.976430 8.537988 0.000000 0.000000 0.000000 0.000000 0.000000 0.000000 -51.298599 55.001468 46.676798 11.067767 -14.159286 -12.329694 15.152367 -35.884858 4.233334 6.800632 22.717754 -9.743765 0.000000 0.000000 0.000000 0.000000 0.000000 0.000000 -28.715237 -3.619363 50.207390 -130.371736 71.538806 128.970660 104.130544 -11.986894 15.610933 0.000000 0.000000 0.000000 -107.350572 32.818685 97.626063 -20.453895 -43.761857 -27.689912 72.916169 -31.449889 -48.250489 0.000000 0.000000 0.000000
-54.123301 71.749315 287.825600 18.237744 -31.912384 -36.409822 -0.198434 -0.267945 42.506294 -0.893095 0.525995 0.948948 14.924061 16.769546 -19.535833 0.000000 0.000000 0.000000 -33.314918 33.908036 11.855501 22.066122 -31.368885 2.972166 -29.386748 27.101450 10.800064 5.778524 -6.230661 4.858218 0.000000 0.000000 0.000000 0.000000 0.000000 0.000000 -30.820937 50.140513 24.061890 3.062193 2.766559 -7.101844 27.784559 -50.115112 12.628337 -0.135922 31.225496 -8.973742 0.000000 0.000000 0.000000 0.000000 0.000000 0.000000 -37.178926 -3.451472 48.584027 -121.989102 83.901579 132.679668 98.501806 -17.336178 13.233910 0.000000 0.000000 0.000000 -102.514052 45.660688 95.904513 -31.941343 -44.314502 -29.991034 49.710065 22.273026 -37.845379 0.000000 0.000000 0.000000
-55.032837 71.285231 285.876646 18.043493 -30.954135 -34.075943 0.499665 -0.774076 40.017624 -0.851532 0.437440 0.957487 14.782790 16.692486 -19.528968 0.000000 0.000000 0.000000 -33.104444 33.485098 11.654669 25.917853 -35.847873 3.876909 -29.957378 23.046760 13.580563 7.772097 -2.612899 0.396386 0.000000 0.000000 0.000000 0.000000 0.000000 0.000000 -15.688121 40.779502 6.707645 -6.775964 20.143688 0.565721 46.215925 -63.390836 31.535516 -0.807807 42.154732 -13.174905 0.000000 0.000000 0.000000 0.000000 0.000000 0.000000 -46.474249 -3.228888 47.737845 56.054292 81.932036 -30.260450 89.252224 -22.159732 4.323235 0.000000 0.000000 0.000000 -94.026437 51.809985 89.848117 -31.494317 -42.763140 -25.879620 25.322645 50.822145 -16.738058 0.000000 0.000000 0.000000
-55.281906 70.809196 285.309363 18.892627 -32.032314 -27.944137 -0.232637 -0.414593 34.324064 -0.819050 -0.132137 1.052505 14.647946 17.591142 -19.932115 0.000000 0.000000 0.000000 -30.773264 30.281608 10.644554 24.391724 -35.180439 2.271946 -35.148150 21.495780 17.159283 15.791298 -3.032431 -2.979709 0.000000 0.000000 0.000000 0.000000 0.000000 0.000000 -6.608749 30.864966 -4.715232 -22.533517 32.030304 12.641721 49.204240 -65.222075 32.232498 4.643055 43.567411 -18.242240 0.000000 0.000000 0.000000 0.000000 0.000000 0.000000 -62.576456 0.638776 47.567131 55.460006 60.298514 -10.895403 74.259653 -25.963468 -12.246643 0.000000 0.000000 0.000000 -86.861216 60.472219 83.275612 -31.360184 -39.426286 -21.806236 -12.133219 56.138408 19.374616 0.000000 0.000000 0.000000
-55.174110 70.249922 285.032487 20.242151 -33.343802 -21.545919 -0.903455 -0.244223 28.691430 -0.796460 -0.362062 1.118230 14.363672 18.696155 -20.394698 0.000000 0.000000 0.000000 -31.285415 30.568999 11.149429 28.392749 -38.890417 3.045384 -34.565225 25.855740 19.049239 17.204566 -1.538564 -5.260444 0.000000 0.000000 0.000000 0.000000 0.000000 0.000000 -0.972107 20.990971 -12.965499 -42.606374 34.852180 28.765042 32.611772 -53.774056 10.034342 2.901322 35.030336 -12.326064 0.000000 0.000000 0.000000 0.000000 0.000000 0.000000 -78.589946 6.505675 50.360143 59.693961 42.450657 1.382065 60.731859 -25.524402 -24.865662 0.000000 0.000000 0.000000 -83.979722 68.305324 79.534706 -32.665900 -38.287853 -20.535001 -34.437158 47.373660 41.146397 0.000000 0.000000 0.000000
-54.941467 70.073367 284.355307 21.618260 -34.206636 -12.426868 -1.594689 0.059277 20.323655 -0.829425 -0.453020 1.170282 14.082646 19.317461 -20.642014 0.000000 0.000000 0.000000 -33.421418 34.863341 12.426639 33.721595 -44.498361 6.745504 -29.456819 21.651504 18.698422 9.438551 3.003905 -7.252222 0.000000 0.000000 0.000000 0.000000 0.000000 0.000000 1.220063 14.404148 -17.195240 -49.516302 32.652732 35.305325 30.864566 -46.518380 5.169847 1.111830 30.874492 -9.322647 0.000000 0.000000 0.000000 0.000000 0.000000 0.000000 -88.853863 15.420137 53.698880 62.187026 31.518996 8.464655 46.416071 -22.397275 -31.900094 0.000000 0.000000 0.000000 -83.230455 77.647072 77.519393 -34.962496 -38.377686 -21.538795 -43.636349 42.309883 51.334575 0.000000 0.000000 0.000000
-54.475664 69.982502 283.854121 22.989249 -35.343974 1.612737 -2.009820 0.706391 7.108886 -0.897059 -0.274068 1.195465 13.781699 20.002836 -20.906339 0.000000 0.000000 0.000000 -38.734045 41.631241 15.807002 44.025116 -49.446493 13.880478 -30.048502 13.860286 20.633137 6.687716 8.471621 -8.088518 0.000000 0.000000 0.000000 0.000000 0.000000 0.000000 0.484205 13.380205 -17.710427 -41.364107 28.201644 30.145099 27.095000 -35.778528 1.116856 -0.298856 22.255121 -4.729601 0.000000 0.000000 0.000000 0.000000 0.000000 0.000000 -94.937876 29.433578 58.021127 58.825343 26.350832 11.649408 28.966210 -18.701144 -30.956017 0.000000 0.000000 0.000000 -177.966194 87.555496 170.971072 -37.305307 -39.915284 -25.141687 -49.024788 38.688096 58.850525 0.000000 0.000000 0.000000
-54.018434 70.141113 283.205261 24.290333 -36.655906 20.924491 -1.836289 1.254430 -11.333085 -0.969431 -0.060795 1.232377 13.406097 21.219586 -21.370784 0.000000 0.000000 0.000000 -49.306670 52.905097 23.900911 68.127081 -56.146482 33.977337 -37.339176 3.730311 26.642598 12.453272 16.421344 -11.151355 0.000000 0.000000 0.000000 0.000000 0.000000 0.000000 -3.304524 18.628788 -14.350701 -23.048843 18.854578 17.313842 24.536567 -25.053742 -1.451869 -2.998726 17.793660 -0.408639 0.000000 0.000000 0.000000 0.000000 0.000000 0.000000 -96.256927 49.227068 60.924487 49.959317 29.097661 10.984095 8.694136 -24.598323 -22.589363 0.000000 0.000000 0.000000 100.776487 69.993896 -108.051765 -41.200245 -42.069203 -27.777125 -48.986194 41.489922 60.767750 0.000000 0.000000 0.000000
-53.642531 70.466855 282.491773 25.150903 -37.853005 35.928652 -1.485751 1.710432 -25.687441 -1.009760 0.244285 1.229181 13.199310 22.098759 -21.721843 0.000000 0.000000 0.000000 -65.913747 64.141829 38.666280 97.349305 -55.353783 60.853848 -41.823731 -0.503516 30.835575 6.539819 11.549915 -10.277085 0.000000 0.000000 0.000000 0.000000 0.000000 0.000000 -6.882994 22.084826 -11.272866 -9.051004 7.802251 8.935161 20.523634 -11.965636 -5.202778 -2.223283 9.997633 4.260759 0.000000 0.000000 0.000000 0.000000 0.000000 0.000000 -99.936508 65.895466 66.233815 47.180086 31.671311 11.053203 -23.430847 -40.464301 -21.572601 0.000000 0.000000 0.000000 97.327002 54.331273 -104.471092 -45.539472 -43.515796 -30.406906 -43.868603 46.667450 57.577534 0.000000 0.000000 0.000000
-53.226004 71.064044 282.430620 25.852799 -39.077011 46.852653 -1.236623 1.719823 -35.981730 -1.236083 0.385897 1.307554 13.321047 23.388707 -22.307854 0.000000 0.000000 0.000000 -91.619483 68.095782 62.183669 118.568881 -49.491205 78.632328 -55.963947 -9.094728 37.144694 8.778100 2.703846 -10.288309 0.000000 0.000000 0.000000 0.000000 0.000000 0.000000 -11.868212 27.742392 -6.074827 4.209373 -5.294433 1.827345 16.775542 -0.970181 -7.970531 -1.800317 6.234466 7.713669 0.000000 0.000000 0.000000 0.000000 0.000000 0.000000 -97.107721 77.453237 64.357641 43.370210 39.263823 9.691480 -49.002832 -57.852521 -31.792710 0.000000 0.000000 0.000000 98.116032 43.497352 -104.633710 -48.941310 -45.816433 -33.653470 -24.533658 53.709022 38.735742 0.000000 0.000000 0.000000
